<svg width="22" height="22" viewBox="0 0 22 22" fill="none" xmlns="http://www.w3.org/2000/svg">
<path fill-rule="evenodd" clip-rule="evenodd" d="M11 0C11.5523 0 12 0.447715 12 1V5C12 5.55228 11.5523 6 11 6C10.4477 6 10 5.55228 10 5V1C10 0.447715 10.4477 0 11 0Z" fill="black"/>
<path fill-rule="evenodd" clip-rule="evenodd" d="M11 16C11.5523 16 12 16.4477 12 17V21C12 21.5523 11.5523 22 11 22C10.4477 22 10 21.5523 10 21V17C10 16.4477 10.4477 16 11 16Z" fill="black"/>
<path fill-rule="evenodd" clip-rule="evenodd" d="M3.22289 3.22307C3.61341 2.83254 4.24658 2.83254 4.6371 3.22307L7.4671 6.05307C7.85762 6.44359 7.85762 7.07676 7.4671 7.46728C7.07658 7.85781 6.44341 7.85781 6.05289 7.46728L3.22289 4.63728C2.83236 4.24676 2.83236 3.61359 3.22289 3.22307Z" fill="black"/>
<path fill-rule="evenodd" clip-rule="evenodd" d="M14.5329 14.5331C14.9234 14.1426 15.5566 14.1426 15.9471 14.5331L18.7771 17.3631C19.1676 17.7537 19.1676 18.3868 18.7771 18.7773C18.3866 19.1679 17.7534 19.1679 17.3629 18.7773L14.5329 15.9473C14.1424 15.5568 14.1424 14.9237 14.5329 14.5331Z" fill="black"/>
<path fill-rule="evenodd" clip-rule="evenodd" d="M0 11C0 10.4477 0.447715 10 1 10H5C5.55228 10 6 10.4477 6 11C6 11.5523 5.55228 12 5 12H1C0.447715 12 0 11.5523 0 11Z" fill="black"/>
<path fill-rule="evenodd" clip-rule="evenodd" d="M16 11C16 10.4477 16.4477 10 17 10H21C21.5523 10 22 10.4477 22 11C22 11.5523 21.5523 12 21 12H17C16.4477 12 16 11.5523 16 11Z" fill="black"/>
<path fill-rule="evenodd" clip-rule="evenodd" d="M7.4671 14.5331C7.85762 14.9237 7.85762 15.5568 7.4671 15.9473L4.6371 18.7773C4.24658 19.1679 3.61341 19.1679 3.22289 18.7773C2.83236 18.3868 2.83236 17.7537 3.22289 17.3631L6.05289 14.5331C6.44341 14.1426 7.07658 14.1426 7.4671 14.5331Z" fill="black"/>
<path fill-rule="evenodd" clip-rule="evenodd" d="M18.7771 3.22307C19.1676 3.61359 19.1676 4.24676 18.7771 4.63728L15.9471 7.46728C15.5566 7.85781 14.9234 7.85781 14.5329 7.46728C14.1424 7.07676 14.1424 6.44359 14.5329 6.05307L17.3629 3.22307C17.7534 2.83254 18.3866 2.83254 18.7771 3.22307Z" fill="black"/>
</svg>
